<?xml version="1.0" encoding="UTF-8"?>
<!DOCTYPE svg PUBLIC "-//W3C//DTD SVG 1.1//EN" "http://www.w3.org/Graphics/SVG/1.1/DTD/svg11.dtd">
<!-- Creator: CorelDRAW X8 -->
<svg xmlns="http://www.w3.org/2000/svg" xml:space="preserve" width="8.5in" height="11in" version="1.1" style="shape-rendering:geometricPrecision; text-rendering:geometricPrecision; image-rendering:optimizeQuality; fill-rule:evenodd; clip-rule:evenodd"
viewBox="0 0 8500 11000"
 xmlns:xlink="http://www.w3.org/1999/xlink">
 <defs>
  <style type="text/css">
   <![CDATA[
    .fil0 {fill:black}
    .fil1 {fill:white}
   ]]>
  </style>
 </defs>
 <g id="Layer_x0020_1">
  <metadata id="CorelCorpID_0Corel-Layer"/>
  <g id="_1930840348080">
   <path class="fil0" d="M3080 4896c-216,9 -389,84 -544,215 -5,4 -9,8 -13,13 -88,76 -168,193 -214,303 -240,563 181,1227 831,1204 468,-17 854,-408 837,-898 -8,-215 -86,-389 -215,-543l-54 -56c-70,-63 -152,-125 -262,-171 -108,-44 -235,-73 -366,-67z"/>
   <path class="fil1" d="M2773 5130c7,12 14,25 21,37 6,10 19,29 22,40l-44 24 -43 -76c-20,7 -64,45 -83,60 -6,4 -9,8 -15,13l-57 57c-5,6 -9,9 -14,15 -14,19 -52,63 -59,83l75 43 -24 44 -76 -43c-14,15 -48,106 -56,133 -13,48 -27,112 -28,164l101 0 0 78 -101 0c1,52 15,115 28,163 7,27 41,120 56,135l76 -44 25 44 -76 44c8,22 54,74 73,97l57 58c6,4 9,8 15,13 19,15 62,52 83,59l43 -74 43 24c-2,9 -35,62 -42,76 14,14 106,48 133,55 48,13 111,28 164,28l0 -100 78 -1 0 101c52,0 116,-14 162,-27 28,-8 121,-42 135,-56 -7,-14 -40,-67 -42,-77l43 -24 44 75c12,-4 55,-37 66,-46 47,-38 76,-68 115,-114 9,-11 41,-54 46,-67l-75 -43 24 -44 77 43c14,-15 47,-107 55,-134 13,-48 28,-111 28,-164l-101 0 0 -78 101 0c-1,-52 -14,-115 -28,-162 -7,-28 -41,-119 -55,-135l-77 44 -24 -45 75 -43c-7,-19 -66,-93 -86,-113 -30,-31 -111,-103 -142,-115l-43 75 -43 -24c3,-10 34,-61 42,-76 -16,-15 -105,-47 -133,-56 -44,-12 -114,-27 -164,-27l0 100 -78 0 0 -100c-52,0 -115,14 -162,27 -27,7 -121,42 -135,56z"/>
   <path class="fil0" d="M3162 5798l221 0c7,0 17,1 24,0 11,-1 43,-23 47,-29 -27,-13 -28,-25 -55,-25l-233 0c-6,-2 -7,-12 -17,-21 -9,-10 -13,-4 -13,-23l0 -372c0,-11 -22,-39 -29,-45 -7,8 -12,17 -18,27 -10,14 -7,19 -7,39l0 361c-3,10 -35,19 -29,61 5,44 59,66 93,36 7,-7 5,-9 16,-9z"/>
  </g>
 </g>
</svg>
