<?xml version="1.0" encoding="UTF-8"?>
<!DOCTYPE svg PUBLIC "-//W3C//DTD SVG 1.1//EN" "http://www.w3.org/Graphics/SVG/1.1/DTD/svg11.dtd">
<!-- Creator: CorelDRAW X8 -->
<svg xmlns="http://www.w3.org/2000/svg" xml:space="preserve" width="8.5in" height="11in" version="1.1" style="shape-rendering:geometricPrecision; text-rendering:geometricPrecision; image-rendering:optimizeQuality; fill-rule:evenodd; clip-rule:evenodd"
viewBox="0 0 8500 11000"
 xmlns:xlink="http://www.w3.org/1999/xlink">
 <defs>
  <style type="text/css">
   <![CDATA[
    .fil0 {fill:black}
    .fil3 {fill:#727272}
    .fil2 {fill:#9C9C9C}
    .fil1 {fill:#FEFEFE}
   ]]>
  </style>
 </defs>
 <g id="Layer_x0020_1">
  <metadata id="CorelCorpID_0Corel-Layer"/>
  <g id="_1930840357648">
   <path class="fil0" d="M2653 5025c-64,5 -110,48 -129,95 -17,44 -11,162 -11,217l0 902c0,61 -8,162 15,213 20,46 70,86 137,88 149,3 302,0 451,0l1245 0c35,0 79,2 113,-1 63,-5 110,-48 128,-95 18,-47 11,-159 11,-216l0 -903c0,-58 8,-166 -14,-212 -22,-46 -68,-88 -138,-89 -301,-3 -604,0 -905,0 -263,0 -527,0 -791,0 -34,0 -79,-2 -112,1z"/>
   <path class="fil0" d="M2630 6578c-33,3 -60,10 -86,23 -31,15 -32,28 -44,65l-213 648c-11,35 -5,58 12,85 55,85 142,64 260,64l1941 0c71,0 143,0 215,0 63,0 109,-44 125,-90 12,-35 0,-57 -10,-88 -10,-28 -18,-54 -27,-82l-160 -486c-26,-81 -22,-107 -88,-128 -56,-18 -140,-12 -203,-12 -502,0 -1005,0 -1508,0 -67,0 -149,-4 -214,1z"/>
   <polygon class="fil1" points="2729,6342 4400,6342 4397,6342 4397,5221 2731,5221 "/>
   <path class="fil1" d="M4774 7350l-2421 0c5,18 20,33 37,40 18,7 204,3 232,3 679,0 1358,0 2036,0 19,0 62,3 77,-3 18,-6 33,-22 39,-40z"/>
   <path class="fil1" d="M3264 7314l598 0c-7,-30 -25,-89 -35,-124 -3,-10 -5,-34 -14,-39l-500 0c-6,1 -23,70 -25,80 -8,26 -19,58 -24,83z"/>
   <path class="fil1" d="M3742 7024l141 1 -6 -63c-13,-6 -116,-2 -138,-2l3 64z"/>
   <polygon class="fil1" points="3243,7024 3384,7025 3387,6960 3250,6960 "/>
   <path class="fil1" d="M2744 7024l137 1c6,-2 7,-18 10,-30 2,-12 5,-23 7,-35l-137 0 -17 64z"/>
   <polygon class="fil1" points="2910,7024 3051,7025 3061,6960 2924,6960 "/>
   <polygon class="fil1" points="4075,7024 4216,7024 4202,6960 4065,6960 "/>
   <path class="fil1" d="M4246 7025l136 0 -17 -65 -136 0c1,11 4,22 6,33l5 24c4,10 -1,3 6,8z"/>
   <path class="fil1" d="M3576 7024l140 0 -1 -24 -1 -39c-13,-4 -116,-1 -138,-1l0 64z"/>
   <path class="fil1" d="M3411 6999l-1 25 140 0 0 -64c-21,0 -125,-3 -137,1l-2 38z"/>
   <path class="fil1" d="M3078 7019l2 5 134 0c2,-2 2,0 5,-4l5 -60 -137 0 -9 59z"/>
   <path class="fil1" d="M3907 7020c3,4 4,2 5,4l134 0 2 -5 -9 -59 -137 0 5 60z"/>
   <polygon class="fil1" points="3733,6848 3864,6848 3858,6783 3730,6783 "/>
   <polygon class="fil1" points="3262,6848 3392,6848 3397,6783 3269,6783 "/>
   <path class="fil1" d="M2949 6848l130 0 10 -64 -127 -1c-3,8 -13,57 -13,65z"/>
   <path class="fil1" d="M4205 6848l130 0 -17 -65 -127 0c2,16 10,53 14,65z"/>
   <path class="fil1" d="M2791 6847l130 1c4,-12 12,-50 14,-65l-127 0 -17 64z"/>
   <polygon class="fil1" points="3105,6848 3236,6848 3243,6784 3115,6783 "/>
   <polygon class="fil1" points="3890,6848 4020,6848 4011,6784 3884,6783 "/>
   <path class="fil1" d="M4047 6847l130 1c1,-8 -9,-57 -13,-64l-127 -1 10 64z"/>
   <path class="fil1" d="M3414 6934l136 0 1 -61c-22,0 -122,-3 -134,2l-3 59z"/>
   <path class="fil1" d="M2930 6934l128 1c10,-1 8,-3 10,-15 2,-15 5,-31 7,-47l-133 0 -12 61z"/>
   <polygon class="fil1" points="3421,6827 3419,6847 3549,6847 3549,6783 3422,6783 "/>
   <polygon class="fil1" points="3738,6934 3873,6934 3867,6873 3734,6873 "/>
   <polygon class="fil1" points="3091,6934 3227,6934 3234,6873 3100,6873 "/>
   <polygon class="fil1" points="3253,6934 3388,6934 3392,6873 3259,6873 "/>
   <path class="fil1" d="M4196 6934l-12 -60 -132 -1c1,16 4,30 6,45 3,20 -1,16 36,16 34,0 68,0 102,0z"/>
   <polygon class="fil1" points="3899,6934 4034,6934 4026,6873 3893,6873 "/>
   <polygon class="fil1" points="2768,6934 2903,6934 2916,6873 2784,6873 "/>
   <polygon class="fil1" points="4223,6935 4358,6934 4343,6874 4210,6873 "/>
   <polygon class="fil1" points="3705,6831 3704,6783 3579,6784 3578,6847 3706,6847 "/>
   <path class="fil1" d="M3710 6919l-1 -44c-10,-4 -115,-3 -131,-1l0 59 133 0 -1 -14z"/>
   <path class="fil1" d="M2599 7025l119 0 16 -64 -112 -1c-8,5 -10,22 -12,30 -4,11 -9,23 -11,35z"/>
   <path class="fil1" d="M4408 7024l119 1c-2,-12 -7,-24 -10,-35 -5,-15 -5,-30 -17,-30l-108 1 16 63z"/>
   <polygon class="fil1" points="2655,6847 2764,6848 2782,6783 2675,6783 "/>
   <polygon class="fil1" points="4362,6848 4471,6848 4452,6784 4345,6783 "/>
   <path class="fil1" d="M4385 6934l113 0c-2,-11 -13,-55 -21,-61l-108 0 16 61z"/>
   <polygon class="fil1" points="2627,6934 2741,6934 2758,6873 2647,6873 "/>
   <path class="fil2" d="M3705 6831l1 16 -128 0 1 -63c-7,3 -4,15 -4,31 0,11 -1,22 1,33 10,2 117,2 132,0 0,-8 1,-11 -3,-17z"/>
   <path class="fil3" d="M3421 6827c-3,5 -4,14 -3,22 15,2 122,3 133,-1l1 -49c0,-14 0,-12 -3,-16l0 64 -130 0 2 -20z"/>
   <path class="fil2" d="M3710 6919l1 14 -133 0 0 -59c-6,4 -3,53 -2,60 11,3 121,3 136,1 1,-9 1,-10 -2,-16z"/>
   <path class="fil3" d="M3576 7024c10,5 133,2 141,1 2,-8 1,-18 -2,-25l1 24 -140 0z"/>
   <path class="fil3" d="M3550 7024l-140 0 1 -25c-3,6 -4,18 -2,26l138 0c1,0 1,0 2,-1 0,0 1,0 1,0z"/>
   <path class="fil3" d="M4048 7019l-2 5 -134 0c-1,-2 -2,0 -5,-4l1 5 142 1 -2 -7z"/>
   <path class="fil3" d="M3219 7020c-3,4 -3,2 -5,4l-134 0 -2 -5 -2 6 142 1 1 -6z"/>
  </g>
 </g>
</svg>
