<?xml version="1.0" encoding="UTF-8"?>
<!DOCTYPE svg PUBLIC "-//W3C//DTD SVG 1.1//EN" "http://www.w3.org/Graphics/SVG/1.1/DTD/svg11.dtd">
<!-- Creator: CorelDRAW X8 -->
<svg xmlns="http://www.w3.org/2000/svg" xml:space="preserve" width="0.7in" height="0.7in" version="1.1" style="shape-rendering:geometricPrecision; text-rendering:geometricPrecision; image-rendering:optimizeQuality; fill-rule:evenodd; clip-rule:evenodd"
viewBox="0 0 700 700"
 xmlns:xlink="http://www.w3.org/1999/xlink">
 <defs>
  <style type="text/css">
   <![CDATA[
    .fil0 {fill:#A9ABAE}
   ]]>
  </style>
 </defs>
 <g id="Layer_x0020_1">
  <metadata id="CorelCorpID_0Corel-Layer"/>
  <g id="_2540754017328">
   <path class="fil0" d="M284 675l0 -187c0,-16 5,-15 19,-15l102 0c13,0 19,-1 19,15l0 187c5,1 111,0 120,0 9,0 19,0 29,0 4,0 10,1 13,-2 4,-1 5,-5 5,-10l0 -301c0,-4 1,-10 0,-15 -1,-5 -7,-8 -10,-11l-57 -56c-20,-19 -40,-40 -61,-59l-61 -59c-3,-3 -5,-5 -8,-8l-30 -29c-3,-3 -5,-7 -10,-7 -6,0 -8,4 -10,6 -13,12 -26,25 -38,37l-69 66c-13,11 -26,25 -39,37l-7 7c-2,2 -2,2 -4,4l-19 18c-5,5 -10,11 -15,15l-31 30c-8,7 -6,9 -6,24l0 300c0,6 1,8 4,11 4,3 8,2 14,2l120 0c8,0 22,1 30,0z"/>
   <path class="fil0" d="M354 70c2,1 32,30 36,34 2,1 4,3 6,5l10 10c11,10 21,20 32,30 1,1 1,2 2,2 2,3 6,5 8,8l42 40c2,1 4,3 5,5 2,1 4,3 6,5 1,1 1,1 2,3l29 27c4,3 7,7 11,10l42 40c10,10 21,20 32,30 8,8 17,17 26,24 4,4 11,12 15,15 15,11 37,0 33,-20 -1,-6 -4,-9 -7,-12l-16 -14c-2,-2 -3,-4 -6,-6 -1,-1 -2,-3 -4,-5l-27 -25c-11,-10 -23,-21 -34,-32 0,-1 -2,-2 -2,-3l-11 -9c-1,-1 -2,-2 -2,-3l-14 -13c-7,-6 -14,-13 -21,-19l-105 -101c-9,-7 -17,-16 -26,-24l-11 -11c0,0 -2,-1 -2,-2l-35 -33c-3,-2 -7,-5 -14,-5 -12,0 -18,8 -25,15 -4,4 -7,7 -11,10l-5 5c-4,4 -13,12 -15,15 -3,2 -4,4 -6,5l-10 10c-2,2 -3,4 -6,5l-31 30c-1,1 -2,2 -3,2 -1,2 -1,2 -3,3l-10 10c-1,1 -2,2 -3,2 -11,11 -22,22 -34,33 -2,2 -3,4 -5,5l-63 60c-16,15 -31,31 -47,45l-29 28c-1,0 -1,1 -3,2l-21 20c-15,13 -7,34 8,36 13,3 20,-6 28,-13l67 -65c2,-2 4,-3 5,-5 2,-1 3,-2 3,-2 2,-2 2,-2 3,-3 9,-8 17,-17 26,-25 8,-7 14,-13 21,-20l74 -69c2,-3 4,-4 5,-6 9,-8 17,-17 26,-25l26 -24c2,-2 4,-4 6,-6l32 -29z"/>
  </g>
 </g>
</svg>
