<?xml version="1.0" encoding="UTF-8"?>
<!DOCTYPE svg PUBLIC "-//W3C//DTD SVG 1.1//EN" "http://www.w3.org/Graphics/SVG/1.1/DTD/svg11.dtd">
<!-- Creator: CorelDRAW X8 -->
<svg xmlns="http://www.w3.org/2000/svg" xml:space="preserve" width="8.5in" height="11in" version="1.1" style="shape-rendering:geometricPrecision; text-rendering:geometricPrecision; image-rendering:optimizeQuality; fill-rule:evenodd; clip-rule:evenodd"
viewBox="0 0 8500 11000"
 xmlns:xlink="http://www.w3.org/1999/xlink">
 <defs>
  <style type="text/css">
   <![CDATA[
    .fil0 {fill:#141414}
   ]]>
  </style>
 </defs>
 <g id="Layer_x0020_1">
  <metadata id="CorelCorpID_0Corel-Layer"/>
  <g id="_2540754017328">
   <path class="fil0" d="M3781 7540l0 -949c0,-79 27,-77 94,-77l519 0c65,0 96,-4 96,75l0 951c28,3 564,0 608,0 50,0 100,0 151,0 22,0 50,4 68,-8 16,-11 23,-28 23,-54l0 -1525c0,-21 2,-55 -1,-75 -4,-28 -33,-43 -51,-61l-289 -281c-103,-97 -207,-204 -310,-301l-309 -301c-14,-13 -25,-24 -39,-36l-155 -151c-12,-12 -24,-29 -50,-29 -27,0 -38,16 -50,27 -63,59 -130,127 -194,186l-349 336c-64,59 -129,126 -195,187l-38 37c-7,7 -12,11 -19,18l-97 94c-27,25 -52,50 -78,74l-155 150c-41,38 -30,46 -30,124l0 1522c0,28 3,41 20,56 16,15 41,11 67,11l610 0c42,0 115,5 153,0z"/>
   <path class="fil0" d="M4136 4468c13,8 163,155 185,175 11,9 16,15 27,26l53 50c55,49 107,102 161,152 5,5 7,8 12,13 13,13 29,24 40,37l214 203c9,8 17,17 26,26 10,8 19,16 28,25 5,4 7,8 12,13l147 139c18,16 36,34 54,51l213 203c55,49 106,101 160,150 46,42 88,86 134,127 23,21 57,59 80,76 72,55 185,0 166,-100 -6,-32 -22,-49 -39,-64l-78 -75c-10,-9 -18,-16 -28,-25 -9,-9 -17,-18 -26,-26l-134 -127c-59,-53 -115,-109 -172,-164 -5,-5 -9,-8 -14,-13l-53 -50c-5,-4 -9,-7 -13,-12l-68 -65c-36,-33 -70,-68 -107,-101l-533 -507c-45,-40 -87,-85 -132,-125l-55 -52c-4,-4 -8,-7 -13,-11l-173 -165c-18,-17 -38,-32 -74,-32 -59,0 -89,46 -127,80 -18,17 -34,34 -52,50l-27 26c-19,19 -65,58 -80,76 -11,11 -17,16 -27,25l-53 50c-9,9 -17,18 -27,26l-161 152c-4,5 -7,9 -12,13 -4,5 -8,8 -13,12l-54 51c-5,5 -9,8 -13,12 -57,56 -115,112 -174,165 -9,9 -17,18 -26,26l-320 304c-82,74 -159,154 -241,228l-146 138c-5,4 -8,9 -13,14l-107 101c-76,68 -40,170 41,186 66,12 97,-32 138,-69l345 -329c10,-9 19,-16 28,-25 4,-5 7,-9 12,-13 5,-5 9,-8 14,-13 45,-41 88,-86 134,-127 36,-33 70,-68 107,-101l373 -354c9,-11 17,-17 26,-26 46,-41 88,-86 134,-127l132 -126c10,-9 18,-15 27,-25l162 -152z"/>
  </g>
 </g>
</svg>
