<?xml version="1.0" encoding="UTF-8"?>
<!DOCTYPE svg PUBLIC "-//W3C//DTD SVG 1.1//EN" "http://www.w3.org/Graphics/SVG/1.1/DTD/svg11.dtd">
<!-- Creator: CorelDRAW X8 -->
<svg xmlns="http://www.w3.org/2000/svg" xml:space="preserve" width="8.5in" height="11in" version="1.1" style="shape-rendering:geometricPrecision; text-rendering:geometricPrecision; image-rendering:optimizeQuality; fill-rule:evenodd; clip-rule:evenodd"
viewBox="0 0 8500 11000"
 xmlns:xlink="http://www.w3.org/1999/xlink">
 <defs>
  <style type="text/css">
   <![CDATA[
    .fil1 {fill:#FEFEFE}
    .fil0 {fill:black}
   ]]>
  </style>
 </defs>
 <g id="Layer_x0020_1">
  <metadata id="CorelCorpID_0Corel-Layer"/>
  <g id="_1930846693552">
   <path class="fil0" d="M2566 5821c6,24 247,431 287,502 16,29 90,152 95,171 34,-3 590,-337 677,-384l334 -193c28,-17 313,-186 340,-192l-387 -679 -1346 775z"/>
   <path class="fil0" d="M2936 6609c-6,-23 -234,-412 -262,-459 -10,-17 -31,-50 -35,-68 -18,5 -45,23 -55,36l87 156c30,53 57,103 88,155 31,51 59,101 88,154 15,28 29,49 44,77 12,22 40,63 45,83l1315 -776c-4,-16 -39,-78 -49,-97 -28,2 -58,26 -81,40l-552 326c-28,17 -50,29 -77,45 -27,16 -51,32 -79,47l-397 234c-27,16 -53,33 -80,47z"/>
   <path class="fil0" d="M2930 6852l-303 -509c-24,12 -50,33 -73,48l324 501c19,28 30,45 46,75 34,-8 642,-377 667,-393l581 -346c29,-18 55,-33 85,-49 -14,-26 -17,-23 -34,-45 -15,-19 -20,-27 -39,-40 -134,90 -481,292 -627,379 -107,65 -207,126 -313,190l-314 189z"/>
   <path class="fil1" d="M3324 5591c2,23 9,32 18,49 -13,19 -72,71 -19,139 54,70 217,-18 191,56 -11,34 -79,52 -112,53 1,32 10,32 13,61 57,0 54,-15 91,-18 9,18 7,24 24,36 23,-6 15,-12 42,-18 -1,-20 -16,-39 -24,-55 37,-25 58,-71 38,-117 -45,-106 -208,-18 -208,-65 0,-44 67,-60 97,-60 0,-32 -6,-36 -12,-61 -45,0 -43,10 -79,18 -4,-18 -9,-23 -18,-36 -14,8 -25,14 -42,18z"/>
  </g>
 </g>
</svg>
