<?xml version="1.0" encoding="UTF-8"?>
<!DOCTYPE svg PUBLIC "-//W3C//DTD SVG 1.1//EN" "http://www.w3.org/Graphics/SVG/1.1/DTD/svg11.dtd">
<!-- Creator: CorelDRAW X8 -->
<svg xmlns="http://www.w3.org/2000/svg" xml:space="preserve" width="8.5in" height="11in" version="1.1" style="shape-rendering:geometricPrecision; text-rendering:geometricPrecision; image-rendering:optimizeQuality; fill-rule:evenodd; clip-rule:evenodd"
viewBox="0 0 8500 11000"
 xmlns:xlink="http://www.w3.org/1999/xlink">
 <defs>
  <style type="text/css">
   <![CDATA[
    .fil0 {fill:#010100}
   ]]>
  </style>
 </defs>
 <g id="Layer_x0020_1">
  <metadata id="CorelCorpID_0Corel-Layer"/>
  <g id="_1932294857456">
   <path class="fil0" d="M4280 4372c0,43 -7,123 11,146 4,5 17,15 25,15l492 0c29,0 41,-19 45,-48l0 -113c0,-136 -133,-269 -269,-269 -62,0 -84,1 -143,27 -82,37 -161,142 -161,242z"/>
   <path class="fil0" d="M3421 3656c0,60 -11,129 15,150 7,6 19,11 29,11l484 0c61,0 45,-84 45,-161 0,-136 -134,-269 -269,-269l-36 0c-135,0 -268,133 -268,269z"/>
   <path class="fil0" d="M2561 4485c4,29 16,48 45,48l483 0c62,0 45,-84 45,-161 0,-135 -133,-269 -268,-269l-36 0c-135,0 -269,134 -269,269l0 113z"/>
   <path class="fil0" d="M3421 5088c0,77 -17,161 44,161l484 0c61,0 45,-84 45,-161 0,-136 -134,-269 -269,-269l-36 0c-135,0 -268,134 -268,269z"/>
   <path class="fil0" d="M3515 3141c0,34 4,59 16,86 48,110 205,160 312,58 122,-117 35,-306 -108,-328l-54 0c-19,3 -39,9 -59,18 -59,28 -107,100 -107,166z"/>
   <path class="fil0" d="M3515 4573c0,182 204,263 328,145 152,-146 -19,-404 -221,-310l-52 37c-17,17 -26,33 -36,54 -10,19 -19,47 -19,74z"/>
   <path class="fil0" d="M4374 3862c0,31 6,57 17,82 7,16 28,46 40,58 51,51 134,73 212,39 42,-19 78,-52 98,-94 45,-97 4,-203 -87,-254 -67,-37 -159,-25 -221,35 -1,0 -2,1 -3,2 -29,29 -56,76 -56,132z"/>
   <path class="fil0" d="M2655 3857c0,165 164,236 269,184 22,-11 42,-22 59,-39 12,-12 33,-41 39,-55 34,-73 20,-157 -36,-215 -124,-128 -331,-31 -331,125z"/>
   <path class="fil0" d="M4088 5007c0,33 25,54 49,54 23,0 123,-54 148,-67 81,-44 178,-121 240,-189 23,-24 91,-102 91,-129 0,-29 -45,-85 -98,-17 -5,6 -7,8 -12,15 -70,89 -126,142 -223,206 -53,35 -82,50 -140,75 -25,10 -55,20 -55,52z"/>
   <path class="fil0" d="M2799 4676c0,53 172,206 200,229 50,41 138,98 198,125 11,5 71,31 80,31 38,0 91,-67 1,-104 -96,-38 -250,-135 -319,-222l-72 -89c-35,-39 -88,-12 -88,30z"/>
   <path class="fil0" d="M2893 3530c0,21 23,50 44,50 42,0 58,-37 87,-75l51 -56c11,-11 17,-13 29,-25 51,-51 122,-103 187,-135 23,-12 48,-26 72,-36 38,-17 58,-16 58,-63 0,-31 -36,-45 -50,-45 -17,0 -129,57 -147,68 -81,46 -120,77 -185,137l-128 141c-7,9 -18,25 -18,39z"/>
   <path class="fil0" d="M3994 3190c0,46 15,44 58,63l137 73c13,9 18,14 31,23l86 71c30,30 13,8 54,53 9,11 17,17 26,27 9,10 15,21 23,31 8,10 16,20 24,30 40,44 89,2 89,-31 0,-18 -34,-59 -44,-72l-27 -32c-11,-12 -20,-18 -30,-32 -25,-32 -94,-88 -128,-114l-230 -128c-31,-12 -69,2 -69,38z"/>
  </g>
 </g>
</svg>
